<mxfile host="app.diagrams.net" modified="2024-03-08T16:00:43.575Z" agent="Mozilla/5.0 (X11; Ubuntu; Linux x86_64; rv:123.0) Gecko/20100101 Firefox/123.0" etag="hukmVblyAoebW9g8cyV0" version="24.0.2" type="device">
  <diagram name="activation_keys" id="r8-YvSdNa-xQsYWrDdRm">
    <mxGraphModel dx="1388" dy="795" grid="1" gridSize="10" guides="1" tooltips="1" connect="1" arrows="1" fold="1" page="1" pageScale="1" pageWidth="1600" pageHeight="900" math="0" shadow="0">
      <root>
        <mxCell id="0" />
        <mxCell id="1" parent="0" />
        <mxCell id="WnV6bx8n8tee-pB7jT7z-3" value="" style="rounded=1;whiteSpace=wrap;html=1;strokeColor=#3399FF;strokeWidth=3;fillColor=none;" vertex="1" parent="1">
          <mxGeometry x="300" y="180" width="440" height="170" as="geometry" />
        </mxCell>
        <mxCell id="WnV6bx8n8tee-pB7jT7z-19" value="" style="rounded=1;whiteSpace=wrap;html=1;fontColor=#FF33FF;strokeColor=#FF33FF;strokeWidth=3;fillColor=none;" vertex="1" parent="1">
          <mxGeometry x="310" y="190" width="260" height="150" as="geometry" />
        </mxCell>
        <mxCell id="WnV6bx8n8tee-pB7jT7z-4" value="Content View 1" style="text;html=1;align=center;verticalAlign=middle;resizable=0;points=[];autosize=1;strokeColor=none;fillColor=none;fontColor=#3399FF;fontSize=16;fontStyle=1" vertex="1" parent="1">
          <mxGeometry x="600" y="310" width="130" height="30" as="geometry" />
        </mxCell>
        <mxCell id="WnV6bx8n8tee-pB7jT7z-5" value="" style="rounded=1;whiteSpace=wrap;html=1;fontColor=#33FF33;strokeWidth=3;strokeColor=#33FF33;fillColor=none;" vertex="1" parent="1">
          <mxGeometry x="320" y="200" width="110" height="80" as="geometry" />
        </mxCell>
        <mxCell id="WnV6bx8n8tee-pB7jT7z-6" value="" style="rounded=1;whiteSpace=wrap;html=1;fontColor=#33FF33;strokeWidth=3;strokeColor=#33FF33;fillColor=none;" vertex="1" parent="1">
          <mxGeometry x="450" y="200" width="110" height="200" as="geometry" />
        </mxCell>
        <mxCell id="WnV6bx8n8tee-pB7jT7z-7" value="" style="rounded=1;whiteSpace=wrap;html=1;fontColor=#33FF33;strokeColor=#33FF33;strokeWidth=3;fillColor=none;" vertex="1" parent="1">
          <mxGeometry x="590" y="90" width="120" height="140" as="geometry" />
        </mxCell>
        <mxCell id="WnV6bx8n8tee-pB7jT7z-8" value="Product 1" style="text;html=1;align=center;verticalAlign=middle;resizable=0;points=[];autosize=1;strokeColor=none;fillColor=none;fontColor=#33FF33;fontSize=16;fontStyle=1" vertex="1" parent="1">
          <mxGeometry x="330" y="200" width="90" height="30" as="geometry" />
        </mxCell>
        <mxCell id="WnV6bx8n8tee-pB7jT7z-9" value="Product 2" style="text;html=1;align=center;verticalAlign=middle;resizable=0;points=[];autosize=1;strokeColor=none;fillColor=none;fontColor=#33FF33;fontSize=16;fontStyle=1" vertex="1" parent="1">
          <mxGeometry x="460" y="200" width="90" height="30" as="geometry" />
        </mxCell>
        <mxCell id="WnV6bx8n8tee-pB7jT7z-10" value="&lt;div style=&quot;font-size: 16px;&quot;&gt;Product 3&lt;/div&gt;" style="text;html=1;align=center;verticalAlign=middle;resizable=0;points=[];autosize=1;strokeColor=none;fillColor=none;fontColor=#33FF33;fontSize=16;fontStyle=1" vertex="1" parent="1">
          <mxGeometry x="605" y="90" width="90" height="30" as="geometry" />
        </mxCell>
        <mxCell id="WnV6bx8n8tee-pB7jT7z-11" value="Repository 1" style="rounded=1;whiteSpace=wrap;html=1;fontColor=#FF8000;strokeWidth=3;strokeColor=#FF8000;fillColor=none;fontSize=13;fontStyle=1" vertex="1" parent="1">
          <mxGeometry x="330" y="240" width="90" height="30" as="geometry" />
        </mxCell>
        <mxCell id="WnV6bx8n8tee-pB7jT7z-14" value="Repository 3" style="rounded=1;whiteSpace=wrap;html=1;fontColor=#FF8000;strokeWidth=3;strokeColor=#FF8000;fillColor=none;fontSize=13;fontStyle=1" vertex="1" parent="1">
          <mxGeometry x="460" y="300" width="90" height="30" as="geometry" />
        </mxCell>
        <mxCell id="WnV6bx8n8tee-pB7jT7z-15" value="Repository 4" style="rounded=1;whiteSpace=wrap;html=1;fontColor=#FF8000;strokeWidth=3;strokeColor=#FF8000;fillColor=none;fontSize=13;fontStyle=1" vertex="1" parent="1">
          <mxGeometry x="460" y="360" width="90" height="30" as="geometry" />
        </mxCell>
        <mxCell id="WnV6bx8n8tee-pB7jT7z-25" value="Repository 2" style="rounded=1;whiteSpace=wrap;html=1;fontColor=#FF8000;strokeWidth=3;strokeColor=#FF8000;fillColor=none;fontSize=13;fontStyle=1" vertex="1" parent="1">
          <mxGeometry x="460" y="240" width="90" height="30" as="geometry" />
        </mxCell>
        <mxCell id="WnV6bx8n8tee-pB7jT7z-26" value="Repository 6" style="rounded=1;whiteSpace=wrap;html=1;fontColor=#FF8000;strokeWidth=3;strokeColor=#FF8000;fillColor=none;fontSize=13;fontStyle=1" vertex="1" parent="1">
          <mxGeometry x="605" y="190" width="90" height="30" as="geometry" />
        </mxCell>
        <mxCell id="WnV6bx8n8tee-pB7jT7z-27" value="Repository 5" style="rounded=1;whiteSpace=wrap;html=1;fontColor=#FF8000;strokeWidth=3;strokeColor=#FF8000;fillColor=none;fontSize=13;fontStyle=1" vertex="1" parent="1">
          <mxGeometry x="605" y="130" width="90" height="30" as="geometry" />
        </mxCell>
        <mxCell id="WnV6bx8n8tee-pB7jT7z-32" value="Activation Key 1" style="text;html=1;align=center;verticalAlign=middle;resizable=0;points=[];autosize=1;strokeColor=none;fillColor=none;fontColor=#FF33FF;fontSize=16;fontStyle=1" vertex="1" parent="1">
          <mxGeometry x="310" y="300" width="140" height="30" as="geometry" />
        </mxCell>
      </root>
    </mxGraphModel>
  </diagram>
</mxfile>
